<svg width="30" height="30" viewBox="0 0 30 30" fill="none" xmlns="http://www.w3.org/2000/svg">
<path d="M3.12498 13.75V10C3.46998 10 3.75 9.71999 3.75 9.37499C3.75 9.02999 3.46998 8.74997 3.12498 8.74997C1.40127 8.74997 0 10.1525 0 11.875V13.125C0 14.1588 0.841231 15 1.875 15H3.12498C3.46998 15 3.75 14.72 3.75 14.375C3.75 14.03 3.46998 13.75 3.12498 13.75Z" fill="black"/>
<path d="M26.875 8.74997C26.53 8.74997 26.25 9.02999 26.25 9.37499C26.25 9.71999 26.53 10 26.875 10V13.75C26.53 13.75 26.25 14.03 26.25 14.375C26.25 14.72 26.53 15 26.875 15H28.125C29.1588 15 30 14.1588 30 13.125V11.875C30 10.1525 28.5987 8.74997 26.875 8.74997Z" fill="black"/>
<path d="M10.6249 26.25C10.2799 26.25 9.99992 26.53 9.99992 26.875H6.24992C6.24992 26.53 5.9699 26.25 5.6249 26.25C5.2799 26.25 4.99988 26.53 4.99988 26.875V28.125C4.99988 29.1588 5.84111 30 6.87488 30H9.37496C10.4087 30 11.25 29.1588 11.25 28.125V26.875C11.25 26.53 10.9699 26.25 10.6249 26.25Z" fill="black"/>
<path d="M24.375 26.25C24.03 26.25 23.75 26.53 23.75 26.875H20C20 26.53 19.72 26.25 19.375 26.25C19.03 26.25 18.75 26.53 18.75 26.875V28.125C18.75 29.1588 19.5912 30 20.625 30H23.125C24.1588 30 25 29.1588 25 28.125V26.875C25 26.53 24.72 26.25 24.375 26.25Z" fill="black"/>
<path d="M24.375 0H5.62498C3.90121 0 2.5 1.4025 2.5 3.12498V24.375C2.5 26.0975 3.90127 27.5 5.62498 27.5H24.375C26.0988 27.5 27.5 26.0975 27.5 24.375V3.12498C27.5 1.4025 26.0988 0 24.375 0ZM8.125 2.50002H21.875C22.9088 2.50002 23.75 3.34125 23.75 4.37502C23.75 5.40879 22.9088 6.25002 21.875 6.25002H8.125C7.09123 6.25002 6.25 5.40879 6.25 4.37502C6.25 3.34125 7.09123 2.50002 8.125 2.50002ZM8.125 23.75C7.09123 23.75 6.25 22.9088 6.25 21.875C6.25 20.8412 7.09123 20 8.125 20C9.15877 20 10 20.8412 10 21.875C10 22.9088 9.15871 23.75 8.125 23.75ZM21.875 23.75C20.8412 23.75 20 22.9088 20 21.875C20 20.8412 20.8412 20 21.875 20C22.9087 20 23.75 20.8412 23.75 21.875C23.75 22.9088 22.9087 23.75 21.875 23.75ZM25 15.625C25 16.6588 24.1588 17.5 23.125 17.5H6.87496C5.84119 17.5 4.99996 16.6588 4.99996 15.625V9.375C4.99996 8.34123 5.84119 7.5 6.87496 7.5H23.1249C24.1587 7.5 24.9999 8.34123 24.9999 9.375V15.625H25Z" fill="black"/>
</svg>
