<svg width="30" height="30" viewBox="0 0 30 30" fill="none" xmlns="http://www.w3.org/2000/svg">
<g clip-path="url(#clip0)">
<path d="M15 0C8.02102 0 2.36841 0.789499 2.36841 6.31577V21.3158C2.36841 24.3711 4.84733 26.8422 7.89475 26.8422L5.52633 29.2106V30.0001H24.4737V29.2106L22.1053 26.8422C25.1606 26.8422 27.6316 24.3711 27.6316 21.3158V6.31577C27.6316 0.789499 21.979 0 15 0ZM7.89475 23.6842C6.5842 23.6842 5.52633 22.6264 5.52633 21.3158C5.52633 20.0053 6.5842 18.9474 7.89475 18.9474C9.20531 18.9474 10.2632 20.0053 10.2632 21.3158C10.2632 22.6264 9.20523 23.6842 7.89475 23.6842ZM13.421 14.2105H5.52633V6.31577H13.4211V14.2105H13.421ZM22.1053 23.6842C20.7947 23.6842 19.7369 22.6264 19.7369 21.3158C19.7369 20.0053 20.7947 18.9474 22.1053 18.9474C23.4158 18.9474 24.4737 20.0053 24.4737 21.3158C24.4737 22.6264 23.4158 23.6842 22.1053 23.6842ZM24.4737 14.2105H16.5789V6.31577H24.4737V14.2105Z" fill="black"/>
</g>
<defs>
<clipPath id="clip0">
<rect width="30" height="30" fill="white"/>
</clipPath>
</defs>
</svg>
